<svg width="67" height="30" viewBox="0 0 67 30" fill="none" xmlns="http://www.w3.org/2000/svg">
<g clip-path="url(#clip0_200715_140)">
<path d="M0 0H12.4069V4.66667H6.0794V25.3333H12.4069V30H0V0Z" fill="black"/>
<path d="M25.0629 5.83333C27.1307 5.83333 29.488 6.58333 31.6799 8.04167L32.7138 1.58333C30.6047 0.541667 28.1233 0 25.2697 0C19.2316 0 15.5509 3.41667 15.5509 8.08333V8.16667C15.5509 13.375 19.6865 14.875 25.0215 16.125C28.4128 16.9167 29.2399 17.5 29.2399 18.5417V18.625C29.2399 19.7083 28.2473 20.375 26.3863 20.375C23.4913 20.375 20.7205 19.3333 18.2391 17.3333L14.3516 22C17.4533 24.7917 21.6717 26.2083 26.1382 26.2083C27.0894 26.2083 27.9578 26.125 28.8263 26L31.225 11.25C29.9843 10.75 28.5782 10.3333 26.9653 10C23.4086 9.16667 22.5815 8.66667 22.5815 7.5V7.41667C22.5815 6.54167 23.4086 5.83333 25.0629 5.83333Z" fill="black"/>
<path d="M51.3233 24.0417V30H31.7617L32.1753 27.5417L33.54 19.0834L35.8974 4.70837H51.1579V10.6667H37.8411V14.5H49.8759V20H37.8411V24.0417H51.3233Z" fill="black"/>
<path d="M54.2598 25.3333H60.5873V4.66667H54.2598V0H66.6667V30H54.2598V25.3333Z" fill="black"/>
</g>
<defs>
<clipPath id="clip0_200715_140">
<rect width="66.6667" height="30" fill="white"/>
</clipPath>
</defs>
</svg>
