<svg width="60" height="60" viewBox="0 0 60 60" fill="none" xmlns="http://www.w3.org/2000/svg">
<g clip-path="url(#clip0_105207_2231)">
<path d="M49.8284 25.2147L30.6149 36.1589C30.2691 36.3624 29.8419 36.3624 29.4859 36.1589L10.2725 25.2147C9.51984 24.7875 9.51984 23.6992 10.2725 23.2618L29.4859 12.3176C29.8318 12.1142 30.2589 12.1142 30.6149 12.3176L49.8284 23.2618C50.581 23.689 50.581 24.7773 49.8284 25.2147Z" fill="black"/>
<path d="M46.5025 28.8965V37.9184C46.5025 38.3252 46.2889 38.6914 45.9329 38.8948L30.6151 47.6217C30.2693 47.8251 29.8421 47.8251 29.4861 47.6217L14.1682 38.8948C13.8122 38.6914 13.5986 38.3252 13.5986 37.9184V28.8965L22.0916 33.7278L29.4861 37.9489C29.8319 38.1523 30.2591 38.1523 30.6151 37.9489L38.0096 33.7278L46.5025 28.8965Z" fill="black"/>
<path d="M55.4536 14.0058L55.9825 13.6397C56.6233 13.1921 56.5419 12.2259 55.8401 11.8902L51.6292 9.88648C50.9172 9.55083 50.1137 10.1102 50.1747 10.8934L50.5816 15.5417C50.6528 16.3147 51.5377 16.7317 52.1785 16.2842L52.9311 15.7654C59.6238 26.5469 57.8235 40.9087 48.466 49.6559C39.261 58.2608 25.0722 59.3084 14.7281 52.1479C14.0364 51.6698 13.0803 51.8427 12.6023 52.5344C12.1242 53.226 12.2971 54.1821 12.9888 54.6602C18.1049 58.1998 24.0551 59.939 29.9951 59.939C37.4302 59.939 44.845 57.2131 50.5511 51.8834C60.9969 42.1089 63.0108 26.0282 55.4536 14.0058Z" fill="black"/>
<path d="M47.1127 5.27897C35.5989 -2.69527 19.803 -1.52558 9.55038 8.05571C-1.15991 18.0744 -3.08227 34.0838 4.90214 46.3096L4.15964 46.8182C3.51885 47.2657 3.60022 48.232 4.30204 48.5677L8.51292 50.5714C9.2249 50.907 10.0284 50.3476 9.9674 49.5644L9.56055 44.9162C9.48936 44.1432 8.60446 43.7262 7.96367 44.1737L7.41443 44.5602C0.314919 33.5855 2.03385 19.2542 11.6355 10.2832C20.8404 1.67835 35.0293 0.620548 45.3734 7.79126C46.065 8.2693 47.0211 8.09639 47.4992 7.40475C47.9772 6.71311 47.8043 5.75701 47.1127 5.27897Z" fill="black"/>
</g>
<defs>
<clipPath id="clip0_105207_2231">
<rect width="60" height="59.939" fill="white"/>
</clipPath>
</defs>
</svg>
