<svg width="59" height="60" viewBox="0 0 59 60" fill="none" xmlns="http://www.w3.org/2000/svg">
<path d="M21.5626 54.8917C17.4248 53.7545 13.7858 51.6607 10.6085 48.7365C9.61104 49.0794 8.59507 49.4224 7.56062 49.7473C7.08034 49.8917 6.60006 49.8375 6.10131 49.657C5.21464 49.3321 4.67894 48.7004 4.29103 47.9242C3.75533 46.8953 3.07185 45.9567 2.53616 44.9278C2.05588 43.9711 1.35393 43.1408 0.947542 42.148C0.744347 41.6607 0.20865 41.3357 0.20865 40.722C-0.271629 39.9639 0.190178 39.296 0.467262 38.6282C0.541152 38.4477 0.633513 38.213 0.799764 38.1408C1.46477 37.852 1.79727 37.2022 2.35144 36.8051C2.61005 36.6245 2.88713 36.426 3.18269 36.2094C2.75783 34.1336 2.38838 32.0578 2.38838 29.9278C2.38838 27.8159 2.7763 25.7762 3.18269 23.7545C2.46227 23.1047 1.79727 22.4729 1.09532 21.8773C0.374901 21.2635 -0.0499615 20.5054 0.0423999 19.7112C0.0978167 19.278 0.227123 18.8087 0.44879 18.4477C1.13226 17.3827 1.76032 16.2635 2.42532 15.1805C2.96102 14.3141 3.42283 13.4116 4.01394 12.5632C4.32797 12.13 4.51269 11.6245 4.82672 11.1733C5.43631 10.3249 6.65548 9.90975 7.65298 10.1986C8.53965 10.4513 9.3709 10.8303 10.276 10.9928C10.3684 11.0108 10.4423 11.1372 10.5347 11.2274C13.7304 8.3213 17.3694 6.24549 21.5441 5.0361C21.7104 4.54874 21.7473 4.02527 21.9505 3.51986C22.0983 3.14079 22.0614 2.67148 22.1353 2.25632C22.3384 1.17329 23.0219 0.541516 24.001 0.216606C24.3519 0.108303 24.7029 0 25.1278 0C27.7139 0.0361011 30.3 0.0361011 32.8861 0C33.625 0 34.2531 0.288809 34.8442 0.613718C35.3799 0.884477 35.6754 1.46209 35.8232 2.00361C36.0818 2.99639 36.2296 4.00722 36.4328 5.05415C40.5891 6.20939 44.2281 8.2852 47.4053 11.2094C48.4028 10.8664 49.4188 10.5235 50.4533 10.1986C50.9335 10.0542 51.4138 10.1083 51.9126 10.2888C52.7992 10.6137 53.3349 11.2455 53.7229 12.0217C54.2586 13.0505 54.942 13.9892 55.4777 15.0181C55.958 15.9747 56.66 16.8051 57.0663 17.7978C57.2695 18.2852 57.8052 18.6101 57.8052 19.2238C58.2855 19.982 57.8237 20.6498 57.5466 21.3177C57.4727 21.4982 57.3804 21.7329 57.2141 21.8051C56.5491 22.0939 56.2166 22.7437 55.6624 23.1408C55.4038 23.3213 55.1268 23.5199 54.8312 23.7365C55.2561 25.8123 55.6255 27.8881 55.6255 30.018C55.6255 32.13 55.293 34.1697 54.8312 36.1913C55.5516 36.8412 56.2166 37.4729 56.9186 38.0686C57.639 38.6823 58.0638 39.4404 57.9715 40.2347C57.9161 40.6679 57.8052 41.1372 57.5651 41.4982C56.9001 42.5451 56.272 43.6282 55.6255 44.6931C54.8127 46.0108 54.1477 47.4368 53.2056 48.6823C53.0394 49.3682 52.3744 49.4224 51.8941 49.6751C51.3769 49.9458 50.8597 49.8736 50.287 49.7112C49.4373 49.4765 48.6245 49.0614 47.7378 48.9531C47.6455 48.935 47.5716 48.8087 47.4792 48.7184C44.2835 51.6607 40.663 53.7545 36.4328 54.9278C36.2296 55.9025 36.0449 56.9134 35.8232 57.9061C35.6015 58.8809 34.9365 59.4946 33.9945 59.7834C33.6435 59.8917 33.274 60 32.8676 60C30.2815 59.9639 27.6954 59.9639 25.1093 60C24.3704 60 23.7423 59.7112 23.1512 59.3863C22.6155 59.1155 22.3015 58.5379 22.1907 57.9964C21.9875 56.9314 21.7843 55.9386 21.5626 54.8917ZM22.7633 38.9892C23.1328 38.7906 23.5576 38.6643 23.5761 38.231C23.613 37.5812 23.7054 36.9134 23.5576 36.2996C23.299 35.2527 22.8372 34.2419 22.5601 33.1949C22.3754 32.5271 21.969 31.8953 21.9875 31.1733C21.3964 29.7473 21.0269 28.2491 20.5282 26.8051C20.1218 25.6137 19.8262 24.3863 19.3829 23.213C19.1427 22.5632 19.0873 21.8412 18.644 21.2635C18.607 21.2094 18.5886 21.1733 18.5886 21.1733C18.0898 20.8484 17.5726 20.9567 17.1293 20.9567C16.8707 21.1913 16.649 21.3899 16.4458 21.5704C16.4273 22.148 16.0025 22.5993 16.0763 23.1588C15.4298 24.5668 15.1527 26.083 14.617 27.5271C14.3399 28.2671 14.1737 29.0253 13.952 29.7834C13.7488 30.5415 13.3055 31.2274 13.3055 32.0397C12.6036 33.574 12.2526 35.2166 11.7354 36.8231C11.606 37.2202 11.5322 37.5993 11.7908 37.9783C11.8647 38.0866 11.8277 38.2491 11.8277 38.231C12.1233 38.5379 12.3449 38.7545 12.5297 38.9711C12.8806 38.9711 13.2501 38.9711 13.638 38.9711C13.8966 38.6462 14.1552 38.3394 14.3954 38.0325C14.3399 37.0036 14.5616 36.3177 15.0419 35.2166C16.8522 35.2166 18.6625 35.2166 20.4727 35.2166C20.6205 35.7942 20.6944 36.3538 20.8976 36.8773C20.99 37.0939 21.0823 37.3105 21.0454 37.5271C20.99 38.1949 21.2116 38.7184 21.9875 38.9711C22.1722 38.9892 22.4493 38.9892 22.7633 38.9892ZM27.0858 38.9892C27.5846 38.9531 28.1572 39.0975 28.5636 38.7004C28.7114 38.5199 28.8407 38.3394 29.0254 38.0866C29.0254 36.2816 29.0254 34.3863 29.0254 32.491C30.3739 32.491 31.7039 32.4368 33.0154 32.509C33.8097 32.5451 34.4563 32.3105 35.0843 31.9314C35.3799 31.7509 35.6385 31.4801 35.8971 31.2274C36.5806 30.5776 36.9131 29.7834 36.9316 28.8448C36.9316 27.3646 36.9316 25.9025 36.9316 24.4224C36.9316 24.2058 36.8761 23.9711 36.8207 23.7545C36.6175 22.9783 36.1927 22.4007 35.62 21.8953C34.955 21.2996 34.1792 20.9386 33.2556 20.9386C31.1867 20.9386 29.1362 20.9386 27.0489 20.9386C26.8457 21.1552 26.6425 21.3718 26.4023 21.5884C26.4023 27.148 26.4023 32.7437 26.4023 38.3574C26.6425 38.556 26.8642 38.7726 27.0858 38.9892ZM40.3859 38.9892C41.6605 38.9892 42.9535 38.9892 44.2281 38.9892C44.4498 38.7726 44.6714 38.556 44.8931 38.3574C44.8931 38.0144 44.8931 37.6895 44.8931 37.3466C44.8931 37.3105 44.8931 37.2924 44.8931 37.2744C44.616 36.769 44.1912 36.4621 43.637 36.4079C43.637 32.0939 43.637 27.7978 43.637 23.5921C44.0434 23.3935 44.3944 23.213 44.8007 22.9964C44.8562 22.5271 44.8931 22.0397 44.93 21.6968C44.6345 21.3718 44.4313 21.1372 44.265 20.9567C42.935 20.9567 41.642 20.9567 40.4967 20.9567C40.1827 21.2274 39.961 21.426 39.6839 21.6787C39.7393 22.1119 39.8132 22.5993 39.8686 23.0144C40.312 23.231 40.663 23.4116 40.977 23.574C40.977 27.87 40.977 32.1661 40.977 36.426C40.7923 36.4621 40.5891 36.426 40.5152 36.5162C40.2566 36.769 39.8132 36.8412 39.7209 37.2563C39.7209 37.6173 39.7209 37.9783 39.7209 38.3394C39.9425 38.556 40.1642 38.7726 40.3859 38.9892Z" fill="black"/>
<path d="M19.493 32.4549C18.4033 32.491 17.2583 32.509 16.1133 32.5451C16.0764 32.5451 16.021 32.6173 15.9102 32.7076C15.9286 31.5885 16.575 30.6859 16.6489 29.6571C17.2029 28.7545 17.2583 27.6895 17.6277 26.6787C17.7385 26.787 17.9047 26.8953 17.9047 26.9856C17.9232 27.7617 18.3849 28.4296 18.5326 29.1697C18.6434 29.6751 18.9389 30.1625 19.0128 30.6679C19.0867 31.3177 19.5299 31.8051 19.493 32.4549Z" fill="black"/>
<path d="M34.3635 28.9544C34.2342 29.1529 34.1233 29.3515 33.9756 29.532C33.7169 29.8208 33.3844 29.9833 32.9596 29.9652C31.6665 29.9472 30.3735 29.9652 29.0435 29.9652C29.0435 27.8172 29.0435 25.6692 29.0435 23.467C30.3919 23.467 31.7774 23.449 33.1443 23.467C33.7908 23.4851 34.345 24.1349 34.3635 24.8208C34.3635 25.958 34.3635 27.0952 34.3635 28.2323C34.3635 28.4851 34.3635 28.7197 34.3635 28.9544Z" fill="black"/>
</svg>
