<svg width="60" height="60" viewBox="0 0 60 60" fill="none" xmlns="http://www.w3.org/2000/svg">
<path d="M35.3852 59.0027C33.8521 60.9325 30.743 59.8765 30.7055 57.4106L30.1641 21.3613H54.4042C58.7945 21.3613 61.2442 26.4324 58.5157 29.8684L35.3852 59.0027Z" fill="url(#paint0_linear_183750_2088)"/>
<path d="M35.3852 59.0027C33.8521 60.9325 30.743 59.8765 30.7055 57.4106L30.1641 21.3613H54.4042C58.7945 21.3613 61.2442 26.4324 58.5157 29.8684L35.3852 59.0027Z" fill="url(#paint1_linear_183750_2088)" fill-opacity="0.2"/>
<path d="M25.5278 0.996888C27.0609 -0.932888 30.17 0.123128 30.2075 2.58895L30.4434 38.6383H6.50876C2.11852 38.6383 -0.33123 33.5672 2.39726 30.1312L25.5278 0.996888Z" fill="black"/>
<defs>
<linearGradient id="paint0_linear_183750_2088" x1="28.2236" y1="34.0014" x2="49.7674" y2="43.0338" gradientUnits="userSpaceOnUse">
<stop stop-color="#3C3C3C"/>
<stop offset="1"/>
</linearGradient>
<linearGradient id="paint1_linear_183750_2088" x1="29.2528" y1="11.691" x2="39.0786" y2="30.1847" gradientUnits="userSpaceOnUse">
<stop/>
<stop offset="1" stop-opacity="0"/>
</linearGradient>
</defs>
</svg>
