<svg width="65" height="60" viewBox="0 0 65 60" fill="none" xmlns="http://www.w3.org/2000/svg">
<g clip-path="url(#clip0_314_882)">
<path fill-rule="evenodd" clip-rule="evenodd" d="M62.7363 15.7639L57.0557 23.7083L51.3752 15.7639H54.4724C54.2363 9.86111 49.3613 5.13889 43.4029 5.13889C38.3752 5.13889 34.1113 8.51389 32.764 13.1111C31.1252 12.5833 29.4307 12.25 27.7085 12.0972C27.9029 11.3611 28.1529 10.625 28.4585 9.91666C29.2779 7.98611 30.4446 6.25 31.9307 4.76389C33.4168 3.27778 35.1529 2.09722 37.0835 1.29167C39.0835 0.430555 41.2085 0 43.4029 0C45.5974 0 47.7224 0.430555 49.7224 1.27778C51.6529 2.09722 53.389 3.26389 54.8752 4.75C56.3613 6.23611 57.5279 7.97222 58.3474 9.90277C59.139 11.7639 59.5696 13.7361 59.6113 15.7639H62.7363Z" fill="black"/>
<path fill-rule="evenodd" clip-rule="evenodd" d="M54.7918 59.9999V56.5832H35.2085C35.3474 56.5138 35.4863 56.4582 35.6252 56.3888C37.7502 55.3749 39.7085 54.0554 41.4585 52.4443C41.6946 52.2221 41.9168 52.0138 42.1252 51.8054C42.3613 51.5693 42.6113 51.3193 42.8474 51.0554C43.1252 50.7499 43.4029 50.4304 43.6529 50.111H54.7918V46.6943L64.0974 53.3471L54.7918 59.9999Z" fill="black"/>
<path fill-rule="evenodd" clip-rule="evenodd" d="M47.5695 35.3192C47.5695 38.2776 46.9861 41.1526 45.8472 43.8609C44.875 46.1664 43.5139 48.2776 41.8195 50.1248C41.5972 50.3609 41.375 50.597 41.1528 50.8331C40.9445 51.0414 40.7361 51.2359 40.5278 51.4442C38.8889 52.9581 37.0556 54.1942 35.0556 55.1526C34.7778 55.2914 34.4861 55.4164 34.1945 55.5414C34.1806 55.5414 34.1806 55.5553 34.1667 55.5553C32.5 56.2637 30.7083 56.6109 28.8889 56.6109H0V50.1526H26.8195C34.9306 50.1526 41.5833 43.6664 41.6945 35.5553C41.6945 35.4859 41.6945 35.4164 41.6945 35.347C41.6945 26.4859 34.5 19.2914 25.6389 19.2914C16.7778 19.2637 9.58334 26.4442 9.58334 35.3192H13.3056L6.65278 44.6248L0 35.3192H3.72222C3.72222 32.3609 4.30556 29.4859 5.44445 26.7776C6.55556 24.1664 8.125 21.8192 10.1389 19.8053C12.1528 17.7914 14.5 16.2081 17.1111 15.1109C19.8194 13.972 22.6945 13.3887 25.6528 13.3887C26.25 13.3887 26.8333 13.4164 27.4167 13.4581C29.1389 13.597 30.8195 13.9303 32.4583 14.472C33.0417 14.6664 33.6111 14.8748 34.1806 15.1248C36.7917 16.2359 39.1389 17.8053 41.1528 19.8192C43.1667 21.8331 44.75 24.1803 45.8472 26.7914C46.9861 29.4859 47.5695 32.3609 47.5695 35.3192Z" fill="black"/>
</g>
<defs>
<clipPath id="clip0_314_882">
<rect width="64.1111" height="60" fill="white"/>
</clipPath>
</defs>
</svg>
