<svg width="60" height="60" viewBox="0 0 60 60" fill="none" xmlns="http://www.w3.org/2000/svg">
<path d="M7.9 9.7998V50.2998C3 44.8998 0 37.7998 0 29.9998C0 22.1998 3 15.0998 7.9 9.7998Z" fill="black"/>
<path d="M11.0996 14.2002L28.3996 48.9002H11.0996V14.2002Z" fill="black"/>
<path d="M30 44.9996L13 11.0996H47L30 44.9996Z" fill="black"/>
<path d="M29.9998 0C37.7998 0 44.8998 3 50.1998 7.9H9.7998C15.0998 3 22.1998 0 29.9998 0Z" fill="black"/>
<path d="M48.8996 48.9002H31.5996L48.8996 14.2002V48.9002Z" fill="black"/>
<path d="M50.1998 52.0996C44.8998 56.9996 37.7998 59.9996 29.9998 59.9996C22.1998 59.9996 15.0998 56.9996 9.7998 52.0996H50.1998Z" fill="black"/>
<path d="M52.0996 50.1998V9.7998C56.9996 15.0998 59.9996 22.1998 59.9996 29.9998C59.9996 37.7998 56.9996 44.8998 52.0996 50.1998Z" fill="black"/>
<path d="M11.0996 14.1992L28.3996 48.8992H11.0996V14.1992Z" fill="black"/>
<path d="M30 44.9996L13 11.0996H47L30 44.9996Z" fill="black"/>
<path d="M31.5996 48.8992L48.8996 14.1992V48.8992H31.5996Z" fill="black"/>
<path d="M13 11.0996H47L30 44.9996L13 11.0996Z" fill="black"/>
</svg>
